<?xml version="1.0" encoding="UTF-8"?>
<svg width="262px" height="12px" viewBox="0 0 262 12" version="1.1" xmlns="http://www.w3.org/2000/svg" xmlns:xlink="http://www.w3.org/1999/xlink">
    <!-- Generator: Sketch 52.5 (67469) - http://www.bohemiancoding.com/sketch -->
    <title>Artboard</title>
    <desc>Created with Sketch.</desc>
    <g id="Artboard" stroke="none" stroke-width="1" fill="none" fill-rule="evenodd">
        <g id="TESTING_squigglyline" fill="#000000">
            <path d="M84.4856909,0.818195872 C84.5537735,0.806193745 84.6253383,0.8 84.7,0.8 C86.9,0.8 87.8,3.3 88.6,5.6 C89.1,7.1 89.8,9.1 90.6,9.1 C91.3,9.1 92.1,7.1 92.6,5.6 C93.4,3.4 94.3,0.8 96.5,0.8 C98.7,0.8 99.6,3.3 100.4,5.6 C100.9,7.1 101.7,9.1 102.4,9.1 C103.1,9.1 103.9,7.1 104.4,5.6 C105.2,3.4 106.1,0.8 108.3,0.8 C110.5,0.8 111.4,3.3 112.2,5.6 C112.7,7.1 113.4,9.1 114.2,9.1 C114.9,9.1 115.7,7.1 116.2,5.6 C117,3.4 117.9,0.8 120.1,0.8 C122.3,0.8 123.2,3.3 124,5.6 C124.5,7.1 125.2,9.1 126,9.1 C126.7,9.1 127.5,7.1 128,5.6 C128.8,3.4 129.7,0.8 131.9,0.8 C134.1,0.8 135,3.3 135.8,5.6 C136.3,7.1 137.1,9.1 137.8,9.1 C138.5,9.1 139.3,7.1 139.8,5.6 C140.6,3.4 141.5,0.8 143.7,0.8 C145.9,0.8 146.8,3.3 147.6,5.6 C148.1,7.1 148.8,9.1 149.6,9.1 C150.3,9.1 151.1,7.1 151.6,5.6 C152.4,3.4 153.3,0.8 155.5,0.8 C157.7,0.8 158.6,3.3 159.4,5.6 C159.9,7.1 160.7,9.1 161.4,9.1 C162.1,9.1 162.9,7.1 163.4,5.6 C164.2,3.4 165.1,0.8 167.3,0.8 C167.362218,0.8 167.424436,0.806193745 167.485691,0.818195872 C167.553773,0.806193745 167.625338,0.8 167.7,0.8 C169.9,0.8 170.8,3.3 171.6,5.6 C172.1,7.1 172.8,9.1 173.6,9.1 C174.3,9.1 175.1,7.1 175.6,5.6 C176.4,3.4 177.3,0.8 179.5,0.8 C181.7,0.8 182.6,3.3 183.4,5.6 C183.9,7.1 184.7,9.1 185.4,9.1 C186.1,9.1 186.9,7.1 187.4,5.6 C188.2,3.4 189.1,0.8 191.3,0.8 C193.5,0.8 194.4,3.3 195.2,5.6 C195.7,7.1 196.4,9.1 197.2,9.1 C197.9,9.1 198.7,7.1 199.2,5.6 C200,3.4 200.9,0.8 203.1,0.8 C205.3,0.8 206.2,3.3 207,5.6 C207.5,7.1 208.2,9.1 209,9.1 C209.7,9.1 210.5,7.1 211,5.6 C211.8,3.4 212.7,0.8 214.9,0.8 C217.1,0.8 218,3.3 218.8,5.6 C219.3,7.1 220.1,9.1 220.8,9.1 C221.5,9.1 222.3,7.1 222.8,5.6 C223.6,3.4 224.5,0.8 226.7,0.8 C228.9,0.8 229.8,3.3 230.6,5.6 C231.1,7.1 231.8,9.1 232.6,9.1 C233.3,9.1 234.1,7.1 234.6,5.6 C235.4,3.4 236.3,0.8 238.5,0.8 C240.7,0.8 241.6,3.3 242.4,5.6 C242.9,7.1 243.7,9.1 244.4,9.1 C245.1,9.1 245.9,7.1 246.4,5.6 C247.2,3.4 248.1,0.8 250.3,0.8 C250.8,0.8 251.3,1.2 251.3,1.8 C251.3,2.4 250.9,2.8 250.3,2.8 C249.6,2.8 248.8,4.8 248.3,6.3 C247.5,8.5 246.6,11.1 244.4,11.1 C242.2,11.1 241.3,8.6 240.5,6.3 C240,4.8 239.3,2.8 238.5,2.8 C237.8,2.8 237,4.8 236.5,6.3 C235.7,8.5 234.8,11.1 232.6,11.1 C230.4,11.1 229.5,8.6 228.7,6.3 C228.2,4.8 227.5,2.8 226.7,2.8 C226,2.8 225.2,4.8 224.7,6.3 C223.9,8.5 223,11.1 220.8,11.1 C218.6,11.1 217.7,8.6 216.9,6.3 C216.4,4.8 215.6,2.8 214.9,2.8 C214.2,2.8 213.4,4.8 212.9,6.3 C212.1,8.5 211.2,11.1 209,11.1 C206.8,11.1 205.9,8.6 205.1,6.3 C204.6,4.8 203.9,2.8 203.1,2.8 C202.4,2.8 201.6,4.8 201.1,6.3 C200.3,8.5 199.4,11.1 197.2,11.1 C195,11.1 194.1,8.6 193.3,6.3 C192.8,4.8 192.1,2.8 191.3,2.8 C190.6,2.8 189.8,4.8 189.3,6.3 C188.5,8.5 187.6,11.1 185.4,11.1 C183.2,11.1 182.3,8.6 181.5,6.3 C181,4.8 180.2,2.8 179.5,2.8 C178.8,2.8 178,4.8 177.5,6.3 C176.7,8.5 175.8,11.1 173.6,11.1 C171.4,11.1 170.5,8.6 169.7,6.3 C169.2,4.8 168.5,2.8 167.7,2.8 C167.63055,2.8 167.56378,2.79464083 167.5,2.78423265 C167.43622,2.79464083 167.36945,2.8 167.3,2.8 C166.6,2.8 165.8,4.8 165.3,6.3 C164.5,8.5 163.6,11.1 161.4,11.1 C159.2,11.1 158.3,8.6 157.5,6.3 C157,4.8 156.3,2.8 155.5,2.8 C154.8,2.8 154,4.8 153.5,6.3 C152.7,8.5 151.8,11.1 149.6,11.1 C147.4,11.1 146.5,8.6 145.7,6.3 C145.2,4.8 144.5,2.8 143.7,2.8 C143,2.8 142.2,4.8 141.7,6.3 C140.9,8.5 140,11.1 137.8,11.1 C135.6,11.1 134.7,8.6 133.9,6.3 C133.4,4.8 132.6,2.8 131.9,2.8 C131.2,2.8 130.4,4.8 129.9,6.3 C129.1,8.5 128.2,11.1 126,11.1 C123.8,11.1 122.9,8.6 122.1,6.3 C121.6,4.8 120.9,2.8 120.1,2.8 C119.4,2.8 118.6,4.8 118.1,6.3 C117.3,8.5 116.4,11.1 114.2,11.1 C112,11.1 111.1,8.6 110.3,6.3 C109.8,4.8 109.1,2.8 108.3,2.8 C107.6,2.8 106.8,4.8 106.3,6.3 C105.5,8.5 104.6,11.1 102.4,11.1 C100.2,11.1 99.3,8.6 98.5,6.3 C98,4.8 97.2,2.8 96.5,2.8 C95.8,2.8 95,4.8 94.5,6.3 C93.7,8.5 92.8,11.1 90.6,11.1 C88.4,11.1 87.5,8.6 86.7,6.3 C86.2,4.8 85.5,2.8 84.7,2.8 C84.6305504,2.8 84.5637803,2.79464083 84.5,2.78423265 C84.4362197,2.79464083 84.3694496,2.8 84.3,2.8 C83.6,2.8 82.8,4.8 82.3,6.3 C81.5,8.5 80.6,11.1 78.4,11.1 C76.2,11.1 75.3,8.6 74.5,6.3 C74,4.8 73.3,2.8 72.5,2.8 C71.8,2.8 71,4.8 70.5,6.3 C69.7,8.5 68.8,11.1 66.6,11.1 C64.4,11.1 63.5,8.6 62.7,6.3 C62.2,4.8 61.5,2.8 60.7,2.8 C60,2.8 59.2,4.8 58.7,6.3 C57.9,8.5 57,11.1 54.8,11.1 C52.6,11.1 51.7,8.6 50.9,6.3 C50.4,4.8 49.6,2.8 48.9,2.8 C48.2,2.8 47.4,4.8 46.9,6.3 C46.1,8.5 45.2,11.1 43,11.1 C40.8,11.1 39.9,8.6 39.1,6.3 C38.6,4.8 37.9,2.8 37.1,2.8 C36.4,2.8 35.6,4.8 35.1,6.3 C34.3,8.5 33.4,11.1 31.2,11.1 C29,11.1 28.1,8.6 27.3,6.3 C26.8,4.8 26.1,2.8 25.3,2.8 C24.6,2.8 23.8,4.8 23.3,6.3 C22.5,8.5 21.6,11.1 19.4,11.1 C17.2,11.1 16.3,8.6 15.5,6.3 C15,4.8 14.2,2.8 13.5,2.8 C12.8,2.8 12,4.8 11.5,6.3 C10.7,8.5 9.8,11.1 7.6,11.1 C5.4,11.1 4.5,8.6 3.7,6.3 C3.2,4.8 2.5,2.8 1.7,2.8 C1.1,2.8 0.7,2.4 0.7,1.8 C0.7,1.2 1.1,0.8 1.7,0.8 C3.9,0.8 4.8,3.3 5.6,5.6 C6.1,7.1 6.8,9.1 7.6,9.1 C8.3,9.1 9.1,7.1 9.6,5.6 C10.4,3.4 11.3,0.8 13.5,0.8 C15.7,0.8 16.6,3.3 17.4,5.6 C17.9,7.1 18.7,9.1 19.4,9.1 C20.1,9.1 20.9,7.1 21.4,5.6 C22.2,3.4 23.1,0.8 25.3,0.8 C27.5,0.8 28.4,3.3 29.2,5.6 C29.7,7.1 30.4,9.1 31.2,9.1 C31.9,9.1 32.7,7.1 33.2,5.6 C34,3.4 34.9,0.8 37.1,0.8 C39.3,0.8 40.2,3.3 41,5.6 C41.5,7.1 42.2,9.1 43,9.1 C43.7,9.1 44.5,7.1 45,5.6 C45.8,3.4 46.7,0.8 48.9,0.8 C51.1,0.8 52,3.3 52.8,5.6 C53.3,7.1 54.1,9.1 54.8,9.1 C55.5,9.1 56.3,7.1 56.8,5.6 C57.6,3.4 58.5,0.8 60.7,0.8 C62.9,0.8 63.8,3.3 64.6,5.6 C65.1,7.1 65.8,9.1 66.6,9.1 C67.3,9.1 68.1,7.1 68.6,5.6 C69.4,3.4 70.3,0.8 72.5,0.8 C74.7,0.8 75.6,3.3 76.4,5.6 C76.9,7.1 77.7,9.1 78.4,9.1 C79.1,9.1 79.9,7.1 80.4,5.6 C81.2,3.4 82.1,0.8 84.3,0.8 C84.3622181,0.8 84.4244362,0.806193745 84.4856909,0.818195872 Z" id="Combined-Shape"></path>
            <path d="M332.785691,1.01819587 C332.853773,1.00619375 332.925338,1 333,1 C335.2,1 336.1,3.5 336.9,5.8 C337.4,7.3 338.1,9.3 338.9,9.3 C339.6,9.3 340.4,7.3 340.9,5.8 C341.7,3.6 342.6,1 344.8,1 C347,1 347.9,3.5 348.7,5.8 C349.2,7.3 350,9.3 350.7,9.3 C351.4,9.3 352.2,7.3 352.7,5.8 C353.5,3.6 354.4,1 356.6,1 C358.8,1 359.7,3.5 360.5,5.8 C361,7.3 361.7,9.3 362.5,9.3 C363.2,9.3 364,7.3 364.5,5.8 C365.3,3.6 366.2,1 368.4,1 C370.6,1 371.5,3.5 372.3,5.8 C372.8,7.3 373.5,9.3 374.3,9.3 C375,9.3 375.8,7.3 376.3,5.8 C377.1,3.6 378,1 380.2,1 C382.4,1 383.3,3.5 384.1,5.8 C384.6,7.3 385.4,9.3 386.1,9.3 C386.8,9.3 387.6,7.3 388.1,5.8 C388.9,3.6 389.8,1 392,1 C394.2,1 395.1,3.5 395.9,5.8 C396.4,7.3 397.1,9.3 397.9,9.3 C398.6,9.3 399.4,7.3 399.9,5.8 C400.7,3.6 401.6,1 403.8,1 C406,1 406.9,3.5 407.7,5.8 C408.2,7.3 409,9.3 409.7,9.3 C410.4,9.3 411.2,7.3 411.7,5.8 C412.5,3.6 413.4,1 415.6,1 C415.662218,1 415.724436,1.00619375 415.785691,1.01819587 C415.853773,1.00619375 415.925338,1 416,1 C418.2,1 419.1,3.5 419.9,5.8 C420.4,7.3 421.1,9.3 421.9,9.3 C422.6,9.3 423.4,7.3 423.9,5.8 C424.7,3.6 425.6,1 427.8,1 C430,1 430.9,3.5 431.7,5.8 C432.2,7.3 433,9.3 433.7,9.3 C434.4,9.3 435.2,7.3 435.7,5.8 C436.5,3.6 437.4,1 439.6,1 C441.8,1 442.7,3.5 443.5,5.8 C444,7.3 444.7,9.3 445.5,9.3 C446.2,9.3 447,7.3 447.5,5.8 C448.3,3.6 449.2,1 451.4,1 C453.6,1 454.5,3.5 455.3,5.8 C455.8,7.3 456.5,9.3 457.3,9.3 C458,9.3 458.8,7.3 459.3,5.8 C460.1,3.6 461,1 463.2,1 C465.4,1 466.3,3.5 467.1,5.8 C467.6,7.3 468.4,9.3 469.1,9.3 C469.8,9.3 470.6,7.3 471.1,5.8 C471.9,3.6 472.8,1 475,1 C477.2,1 478.1,3.5 478.9,5.8 C479.4,7.3 480.1,9.3 480.9,9.3 C481.6,9.3 482.4,7.3 482.9,5.8 C483.7,3.6 484.6,1 486.8,1 C489,1 489.9,3.5 490.7,5.8 C491.2,7.3 492,9.3 492.7,9.3 C493.4,9.3 494.2,7.3 494.7,5.8 C495.5,3.6 496.4,1 498.6,1 C499.1,1 499.6,1.4 499.6,2 C499.6,2.6 499.2,3 498.6,3 C497.9,3 497.1,5 496.6,6.5 C495.8,8.7 494.9,11.3 492.7,11.3 C490.5,11.3 489.6,8.8 488.8,6.5 C488.3,5 487.6,3 486.8,3 C486.1,3 485.3,5 484.8,6.5 C484,8.7 483.1,11.3 480.9,11.3 C478.7,11.3 477.8,8.8 477,6.5 C476.5,5 475.8,3 475,3 C474.3,3 473.5,5 473,6.5 C472.2,8.7 471.3,11.3 469.1,11.3 C466.9,11.3 466,8.8 465.2,6.5 C464.7,5 463.9,3 463.2,3 C462.5,3 461.7,5 461.2,6.5 C460.4,8.7 459.5,11.3 457.3,11.3 C455.1,11.3 454.2,8.8 453.4,6.5 C452.9,5 452.2,3 451.4,3 C450.7,3 449.9,5 449.4,6.5 C448.6,8.7 447.7,11.3 445.5,11.3 C443.3,11.3 442.4,8.8 441.6,6.5 C441.1,5 440.4,3 439.6,3 C438.9,3 438.1,5 437.6,6.5 C436.8,8.7 435.9,11.3 433.7,11.3 C431.5,11.3 430.6,8.8 429.8,6.5 C429.3,5 428.5,3 427.8,3 C427.1,3 426.3,5 425.8,6.5 C425,8.7 424.1,11.3 421.9,11.3 C419.7,11.3 418.8,8.8 418,6.5 C417.5,5 416.8,3 416,3 C415.93055,3 415.86378,2.99464083 415.8,2.98423265 C415.73622,2.99464083 415.66945,3 415.6,3 C414.9,3 414.1,5 413.6,6.5 C412.8,8.7 411.9,11.3 409.7,11.3 C407.5,11.3 406.6,8.8 405.8,6.5 C405.3,5 404.6,3 403.8,3 C403.1,3 402.3,5 401.8,6.5 C401,8.7 400.1,11.3 397.9,11.3 C395.7,11.3 394.8,8.8 394,6.5 C393.5,5 392.8,3 392,3 C391.3,3 390.5,5 390,6.5 C389.2,8.7 388.3,11.3 386.1,11.3 C383.9,11.3 383,8.8 382.2,6.5 C381.7,5 380.9,3 380.2,3 C379.5,3 378.7,5 378.2,6.5 C377.4,8.7 376.5,11.3 374.3,11.3 C372.1,11.3 371.2,8.8 370.4,6.5 C369.9,5 369.2,3 368.4,3 C367.7,3 366.9,5 366.4,6.5 C365.6,8.7 364.7,11.3 362.5,11.3 C360.3,11.3 359.4,8.8 358.6,6.5 C358.1,5 357.4,3 356.6,3 C355.9,3 355.1,5 354.6,6.5 C353.8,8.7 352.9,11.3 350.7,11.3 C348.5,11.3 347.6,8.8 346.8,6.5 C346.3,5 345.5,3 344.8,3 C344.1,3 343.3,5 342.8,6.5 C342,8.7 341.1,11.3 338.9,11.3 C336.7,11.3 335.8,8.8 335,6.5 C334.5,5 333.8,3 333,3 C332.93055,3 332.86378,2.99464083 332.8,2.98423265 C332.73622,2.99464083 332.66945,3 332.6,3 C331.9,3 331.1,5 330.6,6.5 C329.8,8.7 328.9,11.3 326.7,11.3 C324.5,11.3 323.6,8.8 322.8,6.5 C322.3,5 321.6,3 320.8,3 C320.1,3 319.3,5 318.8,6.5 C318,8.7 317.1,11.3 314.9,11.3 C312.7,11.3 311.8,8.8 311,6.5 C310.5,5 309.8,3 309,3 C308.3,3 307.5,5 307,6.5 C306.2,8.7 305.3,11.3 303.1,11.3 C300.9,11.3 300,8.8 299.2,6.5 C298.7,5 297.9,3 297.2,3 C296.5,3 295.7,5 295.2,6.5 C294.4,8.7 293.5,11.3 291.3,11.3 C289.1,11.3 288.2,8.8 287.4,6.5 C286.9,5 286.2,3 285.4,3 C284.7,3 283.9,5 283.4,6.5 C282.6,8.7 281.7,11.3 279.5,11.3 C277.3,11.3 276.4,8.8 275.6,6.5 C275.1,5 274.4,3 273.6,3 C272.9,3 272.1,5 271.6,6.5 C270.8,8.7 269.9,11.3 267.7,11.3 C265.5,11.3 264.6,8.8 263.8,6.5 C263.3,5 262.5,3 261.8,3 C261.1,3 260.3,5 259.8,6.5 C259,8.7 258.1,11.3 255.9,11.3 C253.7,11.3 252.8,8.8 252,6.5 C251.5,5 250.8,3 250,3 C249.4,3 249,2.6 249,2 C249,1.4 249.4,1 250,1 C252.2,1 253.1,3.5 253.9,5.8 C254.4,7.3 255.1,9.3 255.9,9.3 C256.6,9.3 257.4,7.3 257.9,5.8 C258.7,3.6 259.6,1 261.8,1 C264,1 264.9,3.5 265.7,5.8 C266.2,7.3 267,9.3 267.7,9.3 C268.4,9.3 269.2,7.3 269.7,5.8 C270.5,3.6 271.4,1 273.6,1 C275.8,1 276.7,3.5 277.5,5.8 C278,7.3 278.7,9.3 279.5,9.3 C280.2,9.3 281,7.3 281.5,5.8 C282.3,3.6 283.2,1 285.4,1 C287.6,1 288.5,3.5 289.3,5.8 C289.8,7.3 290.5,9.3 291.3,9.3 C292,9.3 292.8,7.3 293.3,5.8 C294.1,3.6 295,1 297.2,1 C299.4,1 300.3,3.5 301.1,5.8 C301.6,7.3 302.4,9.3 303.1,9.3 C303.8,9.3 304.6,7.3 305.1,5.8 C305.9,3.6 306.8,1 309,1 C311.2,1 312.1,3.5 312.9,5.8 C313.4,7.3 314.1,9.3 314.9,9.3 C315.6,9.3 316.4,7.3 316.9,5.8 C317.7,3.6 318.6,1 320.8,1 C323,1 323.9,3.5 324.7,5.8 C325.2,7.3 326,9.3 326.7,9.3 C327.4,9.3 328.2,7.3 328.7,5.8 C329.5,3.6 330.4,1 332.6,1 C332.662218,1 332.724436,1.00619375 332.785691,1.01819587 Z" id="Combined-Shape-Copy"></path>
        </g>
    </g>
</svg>